<?xml version="1.0" encoding="UTF-8"?>
<svg xmlns="http://www.w3.org/2000/svg" id="Layer_2" data-name="Layer 2" viewBox="0 0 838.55 311.41">
  <defs>
    <style>
      .cls-1 {
        fill: #2563EB;
        stroke-width: 0px;
      }
    </style>
  </defs>
  <g id="Alm">
    <g>
      <path class="cls-1" d="M340.9,40.78c14.22,6.98,10.61,29.84,10.61,29.84,4-10.6,11.5-29.64-.8-39.66-27.16-22.13-79.33,34.15-95.82,54.08,0,0,60.18-56.93,86.01-44.25Z"></path>
      <path class="cls-1" d="M26.79,168.93c.34,14.27,4.04,24.71,11.1,31.34,7.06,6.63,17.48,9.94,31.25,9.94,12.07,0,38.6-4.55,38.6-4.55l-14.25,23.66s-17.72,1.78-25.88,1.78c-11.91,0-22.11-1.66-30.61-4.97-8.51-3.31-15.52-7.98-21.05-14.01-5.53-6.03-9.57-13.16-12.12-21.4-2.55-8.24-3.83-17.28-3.83-27.14s1.23-18.73,3.7-27.14c2.46-8.41,6.25-15.71,11.35-21.91,5.1-6.2,11.52-11.12,19.26-14.78,7.74-3.65,16.88-5.48,27.43-5.48,9.01,0,16.92,1.53,23.73,4.59,6.8,3.06,12.5,7.26,17.09,12.61,4.59,5.35,8.08,11.72,10.46,19.11,2.38,7.39,3.57,15.41,3.57,24.08,0,2.38-.09,4.88-.25,7.51-.17,2.64-.34,4.88-.51,6.75H26.79ZM91.59,150.08c0-4.75-.64-9.3-1.91-13.63-1.27-4.33-3.15-8.11-5.61-11.34-2.47-3.22-5.61-5.81-9.44-7.77-3.83-1.95-8.38-2.93-13.65-2.93-10.38,0-18.33,3.14-23.85,9.43-5.53,6.29-8.89,15.03-10.08,26.24h64.55Z"></path>
      <path class="cls-1" d="M286.21,231.82c-10.21,0-19.14-1.74-26.79-5.22-7.65-3.48-14.03-8.28-19.13-14.4-5.1-6.12-8.89-13.33-11.35-21.66-2.47-8.32-3.7-17.32-3.7-27.01s1.23-18.68,3.7-27.01c2.46-8.32,6.25-15.54,11.35-21.66,5.1-6.12,11.48-10.95,19.13-14.52,7.65-3.57,16.58-5.35,26.79-5.35s19.13,1.78,26.79,5.35c7.65,3.57,14.03,8.41,19.13,14.52,5.1,6.12,8.88,13.34,11.35,21.66,2.46,8.32,3.7,17.32,3.7,27.01s-1.24,18.69-3.7,27.01c-2.47,8.33-6.25,15.54-11.35,21.66-5.1,6.11-11.48,10.91-19.13,14.4-7.65,3.48-16.58,5.22-26.79,5.22ZM286.21,211.7c11.74,0,20.41-4.24,26.02-12.74,5.61-8.49,8.42-20.29,8.42-35.41s-2.81-26.88-8.42-35.29c-5.61-8.41-14.29-12.61-26.02-12.61s-20.37,4.2-25.9,12.61c-5.53,8.41-8.29,20.17-8.29,35.29s2.76,26.92,8.29,35.41c5.52,8.5,14.16,12.74,25.9,12.74Z"></path>
      <path class="cls-1" d="M450.98,42c1.87-.34,4-.59,6.38-.76,2.38-.17,4.42-.26,6.12-.26,1.87,0,3.95.09,6.25.26,2.3.17,4.38.42,6.25.76v183.19c-6.46,1.87-13.69,3.44-21.68,4.71-8,1.27-16.93,1.91-26.79,1.91-9.18,0-17.9-1.14-26.15-3.44-8.25-2.3-15.43-6.07-21.56-11.34-6.12-5.26-10.97-12.06-14.54-20.38-3.57-8.32-5.36-18.6-5.36-30.83,0-10.53,1.57-20.13,4.72-28.79,3.14-8.66,7.61-16.09,13.39-22.29,5.78-6.2,12.71-11,20.79-14.4,8.07-3.4,17.05-5.1,26.91-5.1,4.42,0,8.89.34,13.39,1.02,4.5.68,8.46,1.53,11.86,2.55v-56.82ZM450.98,120.23c-3.4-1.36-7.06-2.38-10.97-3.06-3.91-.68-8.16-1.02-12.75-1.02-6.98,0-13.01,1.27-18.11,3.82-5.1,2.55-9.31,6.03-12.63,10.44-3.32,4.42-5.79,9.65-7.4,15.67-1.62,6.03-2.42,12.61-2.42,19.74.17,16.14,3.99,27.69,11.48,34.65,7.48,6.97,17.69,10.45,30.61,10.45,4.42,0,8.5-.21,12.24-.64,3.74-.42,7.05-1.06,9.95-1.91v-88.16Z"></path>
      <path class="cls-1" d="M496.34,98.06c1.87-.34,3.65-.59,5.36-.77,1.7-.17,3.48-.26,5.36-.26s3.74.09,5.61.26c1.87.17,5.86.43,7.4.77v20.64c3.57-5.77,8.29-10.78,14.16-15.03,5.87-4.24,13.39-6.37,22.58-6.37,1.36,0,3.11-.27,7.77-.02,2.29,7.53.37,17.62.05,19.99-5,0-17.09-3-32.19,11.62-3.32,3.22-5.96,7.64-7.91,13.25-1.96,5.61-2.93,12.83-2.93,21.66v64.97c-1.87.34-3.95.59-6.25.77-2.3.17-4.38.26-6.25.26s-3.95-.09-6.25-.26c-2.3-.17-4.47-.43-6.51-.77V98.06Z"></path>
      <path class="cls-1" d="M838.16,218.83c-.25-3.57-.98-7.05-2.17-10.45-2.04.51-4.34.98-6.89,1.4-2.55.42-5.27.64-8.16.64-3.74,0-6.85-.38-9.31-1.15-2.47-.77-4.42-2.29-5.87-4.59-1.45-2.29-2.47-5.56-3.06-9.81-.6-4.25-.9-9.94-.9-17.07v-59.62h33.17c.34-1.7.59-3.4.77-5.1.17-1.7.25-3.48.25-5.35,0-3.57-.34-6.79-1.02-9.68h-33.17v-32.36h-2.04l-22.94,32.36h-51.37v-8.41c0-5.95.59-10.83,1.79-14.65,1.19-3.82,2.85-6.79,4.97-8.92,2.12-2.12,4.68-3.57,7.65-4.33,2.97-.76,6.33-1.15,10.08-1.15,3.23,0,5.99.22,8.29.64,2.3.43,4.29.81,6,1.15,1.02-3.22,1.82-6.37,2.42-9.43.59-3.06,1.06-6.71,1.4-10.96-2.89-.85-5.96-1.48-9.18-1.91-3.23-.42-6.97-.64-11.23-.64-15.48,0-27.26,4.2-35.33,12.61-8.08,8.41-12.12,20.68-12.12,36.82v9.17h-21.43c-.68,2.89-1.02,6.2-1.02,9.93s.34,7.22,1.02,9.94h21.43v110.83c1.87.34,3.99.59,6.38.77,2.38.17,4.5.26,6.37.26s3.96-.09,6.25-.26c2.3-.17,4.38-.43,6.25-.77v-110.83h31.77s19.58.11,19.58.11v74.29c0,13.76,3.45,23.61,10.33,29.55,6.89,5.95,16.45,8.92,28.7,8.92,4.25,0,8.25-.21,11.99-.64,3.74-.42,7.31-1.06,10.72-1.91,0-2.72-.13-5.86-.38-9.43Z"></path>
      <path class="cls-1" d="M654.51,106.6c-8.85-7.73-20.35-10.27-43.1-10.27-6.46,0-29.74.95-29.74.95-1.03,2.98-1.97,14.17,0,19.99,0,0,42.6-5.12,53.7,4.49,4.86,4.21,7.65,10.87,7.65,20.89v4.84c-2.38-.34-5.32-.64-8.8-.89-3.49-.26-7.95-.38-13.39-.38-7.32,0-14.29.89-20.92,2.68-6.63,1.79-12.5,4.5-17.6,8.15-5.1,3.65-9.14,8.24-12.12,13.76-2.98,5.52-4.46,11.94-4.46,19.24s1.28,13.85,3.83,19.11c2.55,5.27,6.16,9.6,10.84,13,4.67,3.4,10.37,5.86,17.09,7.39,6.72,1.53,14.24,2.29,22.58,2.29,8.84,0,17.51-.72,26.02-2.16,8.5-1.44,15.73-2.84,21.68-4.2v-81.79c0-16.98-4.43-29.34-13.27-37.07ZM643.03,208.89c-3.23.85-6.93,1.49-11.1,1.91-4.17.43-8.21.64-12.12.64-3.06,0-6.29-.17-9.69-.51-3.4-.34-6.51-1.27-9.31-2.8-2.81-1.53-5.14-3.73-7.02-6.63-1.87-2.89-2.81-6.88-2.81-11.97,0-7.98,2.76-13.93,8.29-17.84,5.52-3.91,13.56-5.86,24.11-5.86,2.72,0,6.03.17,9.95.51,3.91.34,7.14.68,9.69,1.02v41.53Z"></path>
      <path class="cls-1" d="M189.99,166.39l-15.96,19.56,30.86,40.3h.13c2.51.33,5.16.57,7.95.73,2.81.16,5.34.25,7.64.25s4.84-.08,7.62-.25c2.81-.16,5.37-.41,7.64-.73h.14l-46.03-59.86Z"></path>
      <path class="cls-1" d="M245.06,88.1c14.08-15.59,40.24-43.45,53.64-52.83,1.99-1.39,30.62-24.91,52.51-10.75,21.89,14.16,4.88,44.53,4.88,44.53,0,0,11.63-12.27,14-26.06,6.38-37.22-31.37-51.31-64.52-38.19-25.53,10.11-63.99,51.29-74.03,62.39-32.01,35.3-57.25,71.1-61.4,72.94l-34.79-44.62h.07c-2.34-.33-4.91-.61-7.76-.78-2.85-.16-5.42-.25-7.76-.25-2.11,0-4.63.08-7.58.25-2.96.16-5.6.45-7.91.78l50.32,64.79-5.68,8.04s-57.52,73.41-79.21,143.07c8.01-13.68,52.43-74.39,114.44-150.74,23.28-28.64,43.31-52.8,60.77-72.57Z"></path>
      <path class="cls-1" d="M340.9,40.78c14.22,6.98,10.61,29.84,10.61,29.84,4-10.6,11.5-29.64-.8-39.66-27.16-22.13-79.33,34.15-95.82,54.08,0,0,60.18-56.93,86.01-44.25Z"></path>
    </g>
  </g>
</svg>
